# xmcd
#
# Track frame offsets: 
#        150
#        15970
#        36913
#        57235
#        72770
#        91528
#        111300
#        124948
#        140310
#        156408
#        166790
#        186233
#        201813
#        220313
#
# Disc length: 3158 seconds
#
# Revision: 0
# Processed by: cddbd v1.5.2PL0 Copyright (c) Steve Scherf et al.
# Submitted via: ExactAudioCopy v0.99pb4
#
DISCID=bd0c540e
DTITLE=The Natural Four - Natural Four:The Complete [CD1]
DYEAR=1976
DGENRE=Soul
TTITLE0=Can This Be Real
TTITLE1=You Bring Out The Best In Me
TTITLE2=Try Love Again
TTITLE3=You Can't Keep Running Away
TTITLE4=This Is What's Happening Now
TTITLE5=Love That Really Counts
TTITLE6=Try To Smile
TTITLE7=Love's Society
TTITLE8=Things Will Be Better Tomorrow
TTITLE9=Eddie You Should Know Better (Bonus Track)
TTITLE10=Heaven Right Here On Earth
TTITLE11=Love's So Wonderful
TTITLE12=Count On Me
TTITLE13=Baby Come On
EXTD=
EXTT0=
EXTT1=
EXTT2=
EXTT3=
EXTT4=
EXTT5=
EXTT6=
EXTT7=
EXTT8=
EXTT9=
EXTT10=
EXTT11=
EXTT12=
EXTT13=
PLAYORDER=
